<svg xmlns="http://www.w3.org/2000/svg" xmlns:xlink="http://www.w3.org/1999/xlink" width="300" zoomAndPan="magnify" viewBox="0 0 224.87999 149.999998" height="200" preserveAspectRatio="xMidYMid meet" version="1.0"><defs><clipPath id="09158567cb"><path d="M 0 111 L 224.761719 111 L 224.761719 149.960938 L 0 149.960938 Z M 0 111 " clip-rule="nonzero"/></clipPath><clipPath id="25248b568d"><path d="M 11 88.800781 L 224.761719 88.800781 L 224.761719 147 L 11 147 Z M 11 88.800781 " clip-rule="nonzero"/></clipPath><clipPath id="2e770558f9"><path d="M 0 0.0390625 L 181 0.0390625 L 181 26.929688 L 0 26.929688 Z M 0 0.0390625 " clip-rule="nonzero"/></clipPath><clipPath id="f18c9b0a94"><path d="M 0 0.0390625 L 224.761719 0.0390625 L 224.761719 7 L 0 7 Z M 0 0.0390625 " clip-rule="nonzero"/></clipPath><clipPath id="1e08c03fa2"><path d="M 102 0.0390625 L 224.761719 0.0390625 L 224.761719 2 L 102 2 Z M 102 0.0390625 " clip-rule="nonzero"/></clipPath></defs><g clip-path="url(#09158567cb)"><path fill="#00a7ed" d="M -3.640625 111.726562 C 74.917969 167.582031 152.324219 170.320312 228.277344 111.726562 L 228.277344 178.902344 L -3.640625 178.902344 Z M -3.640625 111.726562 " fill-opacity="1" fill-rule="evenodd"/><path fill="#006fb8" d="M -3.640625 111.726562 C 66.480469 156.160156 150.644531 187.082031 228.277344 141.511719 L 228.277344 178.902344 L -3.640625 178.902344 Z M -3.640625 111.726562 " fill-opacity="1" fill-rule="evenodd"/><path fill="#2a4897" d="M -3.640625 111.726562 C 70.910156 166.894531 141.703125 175.375 228.277344 178.902344 L -3.640625 178.902344 Z M -3.640625 111.726562 " fill-opacity="1" fill-rule="evenodd"/></g><g clip-path="url(#25248b568d)"><path fill="#006fb8" d="M 11.375 108.441406 C 89.933594 164.296875 152.324219 147.394531 228.277344 88.800781 L 228.277344 104.523438 C 167.019531 155.976562 89.933594 164.316406 11.375 108.460938 Z M 11.375 108.441406 " fill-opacity="1" fill-rule="evenodd"/></g><g clip-path="url(#2e770558f9)"><path fill="#05427f" d="M -1.820312 26.929688 L -1.820312 9.804688 C 35.289062 1.839844 73.234375 -2.191406 111.179688 -2.191406 C 134.375 -2.191406 157.570312 -0.683594 180.574219 2.308594 C 93.734375 3.167969 51.640625 6.671875 -1.820312 26.929688 Z M -1.820312 26.929688 " fill-opacity="1" fill-rule="nonzero"/></g><g clip-path="url(#f18c9b0a94)"><path fill="#016dd6" d="M -1.820312 6.296875 L -1.820312 -27.042969 L 225.917969 -27.042969 L 225.917969 6.671875 C 219.703125 5.324219 213.472656 4.089844 207.226562 2.964844 C 138.039062 -9.503906 67.042969 -8.394531 -1.820312 6.296875 Z M -1.820312 6.296875 " fill-opacity="1" fill-rule="nonzero"/></g><g clip-path="url(#1e08c03fa2)"><path fill="#008dff" d="M 102.691406 -27.042969 L 225.917969 -27.042969 L 225.917969 1.78125 C 200.371094 -9.03125 159.652344 -21.863281 102.691406 -27.042969 Z M 102.691406 -27.042969 " fill-opacity="1" fill-rule="nonzero"/></g></svg>